<svg xmlns="http://www.w3.org/2000/svg" width="63.408" height="70.213" viewBox="0 0 63.408 70.213" fill="none">
  <path d="M 28.347 26.498 L 34.466 26.498 C 34.846 24.008 35.141 21.602 35.563 19.239 C 36.406 14.061 38.38 9.133 41.345 4.805 C 42.002 3.874 42.751 3.011 43.582 2.231 C 44.304 1.499 45.169 0.924 46.124 0.544 C 47.08 0.163 48.103 -0.015 49.131 0.021 C 50.158 0.057 51.167 0.305 52.093 0.751 C 53.02 1.197 53.844 1.83 54.513 2.611 C 57.413 5.569 59.518 9.213 60.632 13.204 C 63.319 22.042 64.067 31.355 62.827 40.509 C 62.279 44.759 61.26 48.935 59.788 52.959 C 58.695 56.082 56.952 58.937 54.675 61.338 C 52.399 63.738 49.639 65.629 46.578 66.886 C 41.496 69.287 35.907 70.418 30.291 70.183 C 24.674 69.947 19.199 68.353 14.335 65.535 C 11.412 63.898 8.855 61.679 6.823 59.015 C 4.79 56.351 3.325 53.299 2.518 50.047 C 0.331 42.416 -0.441 34.449 0.24 26.54 C 0.519 20.095 2.113 13.776 4.924 7.97 C 5.882 6.077 7.104 4.33 8.554 2.779 C 9.277 1.868 10.206 1.141 11.265 0.659 C 12.324 0.178 13.482 -0.046 14.645 0.008 C 15.807 0.061 16.94 0.39 17.95 0.968 C 18.96 1.545 19.819 2.354 20.455 3.328 C 23.133 6.463 25.015 10.198 25.941 14.216 C 26.827 17.804 27.672 22.868 28.347 26.498 C 28.262 25.991 28.516 26.962 28.347 26.498 Z M 41.936 51.819 C 41.092 53.001 40.29 54.014 39.615 55.111 C 38.94 56.209 39.615 57.095 40.797 57.01 C 41.997 56.961 43.195 56.848 44.384 56.673 C 46.178 56.439 47.992 56.907 49.448 57.981 C 50.461 58.699 51.474 59.458 52.529 60.091 C 52.75 60.183 52.986 60.23 53.225 60.23 C 53.464 60.23 53.701 60.183 53.922 60.091 C 54.238 59.727 54.417 59.265 54.428 58.783 C 54.491 58.01 54.491 57.234 54.428 56.462 C 54.146 55.187 54.162 53.865 54.477 52.598 C 54.792 51.331 55.396 50.154 56.243 49.161 C 56.845 48.445 57.368 47.667 57.804 46.839 C 57.927 46.677 58.001 46.482 58.015 46.279 C 58.03 46.076 57.986 45.873 57.888 45.694 C 57.789 45.516 57.642 45.37 57.462 45.273 C 57.283 45.177 57.079 45.135 56.876 45.151 C 55.441 45.151 54.006 45.405 52.656 45.531 C 53.249 46.889 53.336 48.414 52.903 49.83 C 52.469 51.247 51.543 52.461 50.292 53.254 C 48.939 54.036 47.35 54.304 45.815 54.01 C 44.281 53.715 42.904 52.878 41.936 51.651 L 41.936 51.819 Z M 11.634 45.32 C 10.073 45.32 8.68 45.067 7.414 45.067 C 6.148 45.067 5.979 45.911 6.528 46.797 C 7.076 47.684 8.005 48.907 8.765 49.92 C 9.851 51.276 10.366 53.002 10.199 54.731 C 10.038 55.964 9.94 57.203 9.904 58.445 C 9.885 58.706 9.92 58.969 10.007 59.216 C 10.094 59.463 10.232 59.689 10.41 59.88 C 10.641 59.989 10.894 60.046 11.149 60.046 C 11.404 60.046 11.657 59.989 11.888 59.88 C 12.863 59.268 13.807 58.606 14.715 57.897 C 15.442 57.325 16.275 56.903 17.166 56.657 C 18.058 56.411 18.989 56.344 19.906 56.462 C 21.138 56.623 22.378 56.722 23.62 56.757 C 24.759 56.757 25.308 55.913 24.717 54.942 C 24.126 53.972 23.114 52.748 22.312 51.651 C 18.345 54.309 16.192 54.774 13.871 53.212 C 12.622 52.376 11.711 51.123 11.302 49.677 C 10.892 48.232 11.01 46.687 11.634 45.32 Z M 30.921 60.007 L 31.934 61.779 L 33.2 60.387 L 32.103 58.91 L 30.921 60.007 Z" fill="currentColor" fill-rule="nonzero"></path>
</svg>