<svg xmlns="http://www.w3.org/2000/svg" width="55.931" height="55.448" viewBox="0 0 55.931 55.448" fill="none">
  <path d="M 25.329 4.371 C 26.526 2.386 29.404 2.386 30.601 4.371 L 36.46 14.086 C 36.893 14.803 37.599 15.313 38.416 15.498 L 49.505 18.011 C 51.784 18.527 52.679 21.294 51.135 23.048 L 43.681 31.511 C 43.123 32.145 42.849 32.981 42.926 33.823 L 43.94 45.039 C 44.15 47.354 41.815 49.057 39.674 48.151 L 29.165 43.702 C 28.398 43.377 27.532 43.377 26.765 43.702 L 16.256 48.151 C 14.115 49.057 11.781 47.354 11.99 45.039 L 13.005 33.823 C 13.081 32.981 12.808 32.145 12.249 31.511 L 4.796 23.048 C 3.251 21.294 4.147 18.527 6.425 18.011 L 17.515 15.498 C 18.331 15.313 19.038 14.803 19.47 14.086 L 25.329 4.371 Z" fill="currentColor" fill-rule="nonzero"></path>
</svg>